  0
SECTION
  2
HEADER
  9
$MEASUREMENT
  70
  1
  9
$INSUNITS
  70
  4
  0
ENDSEC
  0
SECTION
  2
TABLES
  0
TABLE
  2
LTYPE
 70
     1
  0
LTYPE
  2
CONTINUOUS
 70
    64
  3
Ausgezogene Linie
 72
    65
 73
     0
 40
0.0
  0
ENDTAB
  0
TABLE
  2
LAYER
 70
     3
  0
LAYER
  2
Contour
 70
    64
 62
     7
  6
CONTINUOUS
  0
LAYER
  2
Engraving
 70
    64
 62
     7
  6
CONTINUOUS
  0
LAYER
  2
Reference_points
 70
    64
 62
     1
  6
CONTINUOUS
  0
ENDTAB
  0
TABLE
  2
STYLE
 70
     1
  0
STYLE
  2
TXT
 70
    64
 40
0.0
 41
1.0
 50
0.0
 71
     0
 42
3.500000
  3
TXT
  0
ENDTAB
  0
ENDSEC
  0
SECTION
  2
BLOCKS
  0
ENDSEC
  0
SECTION
  2
ENTITIES
  0
LINE
  8
Contour
 62
   7
 39
0.100
  6
CONTINUOUS
 10
260.00000
 20
130.00000
 30
 0
 11
260.00000
 21
0.00000
  0
LINE
  8
Contour
 62
   7
 39
0.100
  6
CONTINUOUS
 10
260.00000
 20
0.00000
 30
 0
 11
0.00000
 21
0.00000
  0
LINE
  8
Contour
 62
   7
 39
0.100
  6
CONTINUOUS
 10
0.00000
 20
0.00000
 30
 0
 11
0.00000
 21
130.00000
  0
LINE
  8
Contour
 62
   7
 39
0.100
  6
CONTINUOUS
 10
0.00000
 20
130.00000
 30
 0
 11
260.00000
 21
130.00000
  0
LINE
  8
Engraving
 62
   7
 39
0.200
  6
CONTINUOUS
 10
46.87600
 20
35.34100
 30
 0
 11
42.78800
 21
35.34100
  0
LINE
  8
Engraving
 62
   7
 39
0.200
  6
CONTINUOUS
 10
44.82694
 20
37.47700
 30
 0
 11
44.83306
 21
33.19500
  0
LINE
  8
Engraving
 62
   7
 39
0.200
  6
CONTINUOUS
 10
86.87600
 20
35.34100
 30
 0
 11
82.78800
 21
35.34100
  0
LINE
  8
Engraving
 62
   7
 39
0.200
  6
CONTINUOUS
 10
84.82694
 20
37.47700
 30
 0
 11
84.83306
 21
33.19500
  0
LINE
  8
Engraving
 62
   7
 39
0.200
  6
CONTINUOUS
 10
126.87600
 20
35.34100
 30
 0
 11
122.78800
 21
35.34100
  0
LINE
  8
Engraving
 62
   7
 39
0.200
  6
CONTINUOUS
 10
124.82694
 20
37.47700
 30
 0
 11
124.83306
 21
33.19500
  0
LINE
  8
Engraving
 62
   7
 39
0.200
  6
CONTINUOUS
 10
166.87600
 20
35.34100
 30
 0
 11
162.78800
 21
35.34100
  0
LINE
  8
Engraving
 62
   7
 39
0.200
  6
CONTINUOUS
 10
164.82694
 20
37.47700
 30
 0
 11
164.83306
 21
33.19500
  0
LINE
  8
Engraving
 62
   7
 39
0.200
  6
CONTINUOUS
 10
26.87600
 20
60.34100
 30
 0
 11
22.78800
 21
60.34100
  0
LINE
  8
Engraving
 62
   7
 39
0.200
  6
CONTINUOUS
 10
24.82694
 20
62.47700
 30
 0
 11
24.83306
 21
58.19500
  0
LINE
  8
Engraving
 62
   7
 39
0.200
  6
CONTINUOUS
 10
166.87600
 20
80.34100
 30
 0
 11
162.78800
 21
80.34100
  0
LINE
  8
Engraving
 62
   7
 39
0.200
  6
CONTINUOUS
 10
164.82694
 20
82.47700
 30
 0
 11
164.83306
 21
78.19500
  0
LINE
  8
Engraving
 62
   7
 39
0.200
  6
CONTINUOUS
 10
206.87600
 20
80.34100
 30
 0
 11
202.78800
 21
80.34100
  0
LINE
  8
Engraving
 62
   7
 39
0.200
  6
CONTINUOUS
 10
204.82694
 20
82.47700
 30
 0
 11
204.83306
 21
78.19500
  0
LINE
  8
Engraving
 62
   7
 39
0.200
  6
CONTINUOUS
 10
26.87600
 20
95.34100
 30
 0
 11
22.78800
 21
95.34100
  0
LINE
  8
Engraving
 62
   7
 39
0.200
  6
CONTINUOUS
 10
24.82694
 20
97.47700
 30
 0
 11
24.83306
 21
93.19500
  0
LINE
  8
Engraving
 62
   7
 39
0.200
  6
CONTINUOUS
 10
61.87600
 20
95.34100
 30
 0
 11
57.78800
 21
95.34100
  0
LINE
  8
Engraving
 62
   7
 39
0.200
  6
CONTINUOUS
 10
59.82694
 20
97.47700
 30
 0
 11
59.83306
 21
93.19500
  0
LINE
  8
Engraving
 62
   7
 39
0.200
  6
CONTINUOUS
 10
86.87600
 20
95.34100
 30
 0
 11
82.78800
 21
95.34100
  0
LINE
  8
Engraving
 62
   7
 39
0.200
  6
CONTINUOUS
 10
84.82694
 20
97.47700
 30
 0
 11
84.83306
 21
93.19500
  0
LINE
  8
Engraving
 62
   7
 39
0.200
  6
CONTINUOUS
 10
126.87600
 20
80.34100
 30
 0
 11
122.78800
 21
80.34100
  0
LINE
  8
Engraving
 62
   7
 39
0.200
  6
CONTINUOUS
 10
124.82694
 20
82.47700
 30
 0
 11
124.83306
 21
78.19500
  0
LINE
  8
Engraving
 62
   7
 39
0.400
  6
CONTINUOUS
 10
201.67173
 20
65.09900
 30
 0
 11
202.52607
 21
62.53600
  0
LINE
  8
Engraving
 62
   7
 39
0.400
  6
CONTINUOUS
 10
202.52607
 20
62.53600
 30
 0
 11
203.38040
 21
65.09900
  0
ARC
  8
Engraving
 62
   7
 39
0.400
  6
CONTINUOUS
 10
204.97602
 20
63.39033
 30
 0
 40
0.91129
 50
180.00000
 51
360.00000
  0
LINE
  8
Engraving
 62
   7
 39
0.400
  6
CONTINUOUS
 10
205.88731
 20
63.39033
 30
 0
 11
205.88731
 21
64.24467
  0
ARC
  8
Engraving
 62
   7
 39
0.400
  6
CONTINUOUS
 10
204.97602
 20
64.24467
 30
 0
 40
0.91129
 50
0.00000
 51
180.00000
  0
LINE
  8
Engraving
 62
   7
 39
0.400
  6
CONTINUOUS
 10
204.06473
 20
64.24467
 30
 0
 11
204.06473
 21
63.39033
  0
LINE
  8
Engraving
 62
   7
 39
0.400
  6
CONTINUOUS
 10
206.57073
 20
65.09900
 30
 0
 11
206.57073
 21
62.53600
  0
LINE
  8
Engraving
 62
   7
 39
0.400
  6
CONTINUOUS
 10
206.57073
 20
62.53600
 30
 0
 11
207.99462
 21
62.53600
  0
LINE
  8
Engraving
 62
   7
 39
0.400
  6
CONTINUOUS
 10
141.58673
 20
46.81750
 30
 0
 11
143.01062
 21
46.81750
  0
LINE
  8
Engraving
 62
   7
 39
0.400
  6
CONTINUOUS
 10
143.29540
 20
48.09900
 30
 0
 11
141.58673
 21
48.09900
  0
LINE
  8
Engraving
 62
   7
 39
0.400
  6
CONTINUOUS
 10
141.58673
 20
48.09900
 30
 0
 11
141.58673
 21
45.53600
  0
LINE
  8
Engraving
 62
   7
 39
0.400
  6
CONTINUOUS
 10
141.58673
 20
45.53600
 30
 0
 11
143.29540
 21
45.53600
  0
LINE
  8
Engraving
 62
   7
 39
0.400
  6
CONTINUOUS
 10
143.97973
 20
45.53600
 30
 0
 11
143.97973
 21
48.09900
  0
LINE
  8
Engraving
 62
   7
 39
0.400
  6
CONTINUOUS
 10
143.97973
 20
48.09900
 30
 0
 11
145.68840
 21
45.53600
  0
LINE
  8
Engraving
 62
   7
 39
0.400
  6
CONTINUOUS
 10
145.68840
 20
45.53600
 30
 0
 11
145.68840
 21
48.09900
  0
LINE
  8
Engraving
 62
   7
 39
0.400
  6
CONTINUOUS
 10
146.37173
 20
48.09900
 30
 0
 11
147.22607
 21
45.53600
  0
LINE
  8
Engraving
 62
   7
 39
0.400
  6
CONTINUOUS
 10
147.22607
 20
45.53600
 30
 0
 11
148.08040
 21
48.09900
  0
LINE
  8
Engraving
 62
   7
 39
0.400
  6
CONTINUOUS
 10
139.05873
 20
91.81750
 30
 0
 11
140.48262
 21
91.81750
  0
LINE
  8
Engraving
 62
   7
 39
0.400
  6
CONTINUOUS
 10
140.76740
 20
93.09900
 30
 0
 11
139.05873
 21
93.09900
  0
LINE
  8
Engraving
 62
   7
 39
0.400
  6
CONTINUOUS
 10
139.05873
 20
93.09900
 30
 0
 11
139.05873
 21
90.53600
  0
LINE
  8
Engraving
 62
   7
 39
0.400
  6
CONTINUOUS
 10
141.45173
 20
93.09900
 30
 0
 11
141.45173
 21
90.53600
  0
LINE
  8
Engraving
 62
   7
 39
0.400
  6
CONTINUOUS
 10
142.13573
 20
93.09900
 30
 0
 11
142.13573
 21
90.53600
  0
LINE
  8
Engraving
 62
   7
 39
0.400
  6
CONTINUOUS
 10
142.13573
 20
90.53600
 30
 0
 11
143.55962
 21
90.53600
  0
LINE
  8
Engraving
 62
   7
 39
0.400
  6
CONTINUOUS
 10
144.24373
 20
93.09900
 30
 0
 11
145.95240
 21
93.09900
  0
LINE
  8
Engraving
 62
   7
 39
0.400
  6
CONTINUOUS
 10
145.95240
 20
93.09900
 30
 0
 11
145.09807
 21
93.09900
  0
LINE
  8
Engraving
 62
   7
 39
0.400
  6
CONTINUOUS
 10
145.09807
 20
93.09900
 30
 0
 11
145.09807
 21
90.53600
  0
LINE
  8
Engraving
 62
   7
 39
0.400
  6
CONTINUOUS
 10
146.63573
 20
91.81750
 30
 0
 11
148.05962
 21
91.81750
  0
LINE
  8
Engraving
 62
   7
 39
0.400
  6
CONTINUOUS
 10
148.34440
 20
93.09900
 30
 0
 11
146.63573
 21
93.09900
  0
LINE
  8
Engraving
 62
   7
 39
0.400
  6
CONTINUOUS
 10
146.63573
 20
93.09900
 30
 0
 11
146.63573
 21
90.53600
  0
LINE
  8
Engraving
 62
   7
 39
0.400
  6
CONTINUOUS
 10
146.63573
 20
90.53600
 30
 0
 11
148.34440
 21
90.53600
  0
LINE
  8
Engraving
 62
   7
 39
0.400
  6
CONTINUOUS
 10
149.02773
 20
90.53600
 30
 0
 11
149.02773
 21
93.09900
  0
LINE
  8
Engraving
 62
   7
 39
0.400
  6
CONTINUOUS
 10
149.02773
 20
93.09900
 30
 0
 11
149.96750
 21
93.09900
  0
ARC
  8
Engraving
 62
   7
 39
0.400
  6
CONTINUOUS
 10
149.96750
 20
92.45825
 30
 0
 40
0.64075
 50
-90.00000
 51
90.00000
  0
LINE
  8
Engraving
 62
   7
 39
0.400
  6
CONTINUOUS
 10
149.96750
 20
91.81750
 30
 0
 11
149.02773
 21
91.81750
  0
LINE
  8
Engraving
 62
   7
 39
0.400
  6
CONTINUOUS
 10
149.02773
 20
91.81750
 30
 0
 11
150.02446
 21
91.81750
  0
LINE
  8
Engraving
 62
   7
 39
0.400
  6
CONTINUOUS
 10
150.02446
 20
91.81750
 30
 0
 11
150.59401
 21
90.53600
  0
LINE
  8
Engraving
 62
   7
 39
0.400
  6
CONTINUOUS
 10
61.67173
 20
48.09900
 30
 0
 11
61.67173
 21
45.53600
  0
LINE
  8
Engraving
 62
   7
 39
0.400
  6
CONTINUOUS
 10
61.67173
 20
45.53600
 30
 0
 11
63.09562
 21
45.53600
  0
LINE
  8
Engraving
 62
   7
 39
0.400
  6
CONTINUOUS
 10
63.77973
 20
46.81750
 30
 0
 11
65.20362
 21
46.81750
  0
LINE
  8
Engraving
 62
   7
 39
0.400
  6
CONTINUOUS
 10
65.48840
 20
48.09900
 30
 0
 11
63.77973
 21
48.09900
  0
LINE
  8
Engraving
 62
   7
 39
0.400
  6
CONTINUOUS
 10
63.77973
 20
48.09900
 30
 0
 11
63.77973
 21
45.53600
  0
ARC
  8
Engraving
 62
   7
 39
0.400
  6
CONTINUOUS
 10
67.08302
 20
46.39033
 30
 0
 40
0.91129
 50
180.00000
 51
360.00000
  0
LINE
  8
Engraving
 62
   7
 39
0.400
  6
CONTINUOUS
 10
67.99431
 20
46.39033
 30
 0
 11
67.99431
 21
47.24467
  0
ARC
  8
Engraving
 62
   7
 39
0.400
  6
CONTINUOUS
 10
67.08302
 20
47.24467
 30
 0
 40
0.91129
 50
0.00000
 51
180.00000
  0
LINE
  8
Engraving
 62
   7
 39
0.400
  6
CONTINUOUS
 10
66.17173
 20
47.24467
 30
 0
 11
66.17173
 21
46.39033
  0
LINE
  8
Engraving
 62
   7
 39
0.400
  6
CONTINUOUS
 10
121.72851
 20
19.24794
 30
 0
 11
123.15240
 21
19.24794
  0
LINE
  8
Engraving
 62
   7
 39
0.400
  6
CONTINUOUS
 10
121.44373
 20
18.53600
 30
 0
 11
122.44046
 21
21.09900
  0
LINE
  8
Engraving
 62
   7
 39
0.400
  6
CONTINUOUS
 10
122.44046
 20
21.09900
 30
 0
 11
123.43718
 21
18.53600
  0
LINE
  8
Engraving
 62
   7
 39
0.400
  6
CONTINUOUS
 10
124.12073
 20
21.09900
 30
 0
 11
125.82940
 21
21.09900
  0
LINE
  8
Engraving
 62
   7
 39
0.400
  6
CONTINUOUS
 10
125.82940
 20
21.09900
 30
 0
 11
124.97507
 21
21.09900
  0
LINE
  8
Engraving
 62
   7
 39
0.400
  6
CONTINUOUS
 10
124.97507
 20
21.09900
 30
 0
 11
124.97507
 21
18.53600
  0
LINE
  8
Engraving
 62
   7
 39
0.400
  6
CONTINUOUS
 10
126.51273
 20
21.09900
 30
 0
 11
126.51273
 21
18.53600
  0
LINE
  8
Engraving
 62
   7
 39
0.400
  6
CONTINUOUS
 10
126.51273
 20
18.53600
 30
 0
 11
126.51273
 21
19.50424
  0
LINE
  8
Engraving
 62
   7
 39
0.400
  6
CONTINUOUS
 10
126.51273
 20
19.50424
 30
 0
 11
126.99686
 21
19.95989
  0
LINE
  8
Engraving
 62
   7
 39
0.400
  6
CONTINUOUS
 10
126.99686
 20
19.95989
 30
 0
 11
128.22140
 21
18.53600
  0
LINE
  8
Engraving
 62
   7
 39
0.400
  6
CONTINUOUS
 10
128.22140
 20
18.53600
 30
 0
 11
126.99686
 21
19.95989
  0
LINE
  8
Engraving
 62
   7
 39
0.400
  6
CONTINUOUS
 10
126.99686
 20
19.95989
 30
 0
 11
128.22140
 21
21.09900
  0
LINE
  8
Engraving
 62
   7
 39
0.400
  6
CONTINUOUS
 10
161.58673
 20
21.59600
 30
 0
 11
162.46954
 21
21.59600
  0
ARC
  8
Engraving
 62
   7
 39
0.400
  6
CONTINUOUS
 10
162.43638
 20
20.73761
 30
 0
 40
0.85903
 50
0.27068
 51
87.78728
  0
LINE
  8
Engraving
 62
   7
 39
0.400
  6
CONTINUOUS
 10
163.29540
 20
20.74167
 30
 0
 11
163.29540
 21
19.88733
  0
ARC
  8
Engraving
 62
   7
 39
0.400
  6
CONTINUOUS
 10
162.47097
 20
19.85795
 30
 0
 40
0.82495
 50
-90.09907
 51
2.04111
  0
LINE
  8
Engraving
 62
   7
 39
0.400
  6
CONTINUOUS
 10
162.46954
 20
19.03300
 30
 0
 11
161.58673
 21
19.03300
  0
LINE
  8
Engraving
 62
   7
 39
0.400
  6
CONTINUOUS
 10
161.58673
 20
19.03300
 30
 0
 11
161.58673
 21
21.59600
  0
LINE
  8
Engraving
 62
   7
 39
0.400
  6
CONTINUOUS
 10
163.97973
 20
21.59500
 30
 0
 11
163.97973
 21
19.03200
  0
LINE
  8
Engraving
 62
   7
 39
0.400
  6
CONTINUOUS
 10
163.97973
 20
19.03200
 30
 0
 11
163.97973
 21
20.00024
  0
LINE
  8
Engraving
 62
   7
 39
0.400
  6
CONTINUOUS
 10
163.97973
 20
20.00024
 30
 0
 11
164.46386
 21
20.45589
  0
LINE
  8
Engraving
 62
   7
 39
0.400
  6
CONTINUOUS
 10
164.46386
 20
20.45589
 30
 0
 11
165.68840
 21
19.03200
  0
LINE
  8
Engraving
 62
   7
 39
0.400
  6
CONTINUOUS
 10
165.68840
 20
19.03200
 30
 0
 11
164.46386
 21
20.45589
  0
LINE
  8
Engraving
 62
   7
 39
0.400
  6
CONTINUOUS
 10
164.46386
 20
20.45589
 30
 0
 11
165.68840
 21
21.59500
  0
LINE
  8
Engraving
 62
   7
 39
0.400
  6
CONTINUOUS
 10
166.37173
 20
21.59500
 30
 0
 11
167.22607
 21
20.31350
  0
LINE
  8
Engraving
 62
   7
 39
0.400
  6
CONTINUOUS
 10
167.22607
 20
20.31350
 30
 0
 11
167.22607
 21
19.03200
  0
LINE
  8
Engraving
 62
   7
 39
0.400
  6
CONTINUOUS
 10
167.22607
 20
19.03200
 30
 0
 11
167.22607
 21
20.31350
  0
LINE
  8
Engraving
 62
   7
 39
0.400
  6
CONTINUOUS
 10
167.22607
 20
20.31350
 30
 0
 11
168.08040
 21
21.59500
  0
LINE
  8
Engraving
 62
   7
 39
0.400
  6
CONTINUOUS
 10
120.41873
 20
63.81750
 30
 0
 11
121.84262
 21
63.81750
  0
LINE
  8
Engraving
 62
   7
 39
0.400
  6
CONTINUOUS
 10
122.12740
 20
65.09900
 30
 0
 11
120.41873
 21
65.09900
  0
LINE
  8
Engraving
 62
   7
 39
0.400
  6
CONTINUOUS
 10
120.41873
 20
65.09900
 30
 0
 11
120.41873
 21
62.53600
  0
LINE
  8
Engraving
 62
   7
 39
0.400
  6
CONTINUOUS
 10
122.81173
 20
62.53600
 30
 0
 11
122.81173
 21
65.09900
  0
LINE
  8
Engraving
 62
   7
 39
0.400
  6
CONTINUOUS
 10
122.81173
 20
65.09900
 30
 0
 11
123.75150
 21
65.09900
  0
ARC
  8
Engraving
 62
   7
 39
0.400
  6
CONTINUOUS
 10
123.75150
 20
64.45825
 30
 0
 40
0.64075
 50
-90.00000
 51
90.00000
  0
LINE
  8
Engraving
 62
   7
 39
0.400
  6
CONTINUOUS
 10
123.75150
 20
63.81750
 30
 0
 11
122.81173
 21
63.81750
  0
LINE
  8
Engraving
 62
   7
 39
0.400
  6
CONTINUOUS
 10
122.81173
 20
63.81750
 30
 0
 11
123.80846
 21
63.81750
  0
LINE
  8
Engraving
 62
   7
 39
0.400
  6
CONTINUOUS
 10
123.80846
 20
63.81750
 30
 0
 11
124.37801
 21
62.53600
  0
LINE
  8
Engraving
 62
   7
 39
0.400
  6
CONTINUOUS
 10
125.03373
 20
63.81750
 30
 0
 11
126.45762
 21
63.81750
  0
LINE
  8
Engraving
 62
   7
 39
0.400
  6
CONTINUOUS
 10
126.74240
 20
65.09900
 30
 0
 11
125.03373
 21
65.09900
  0
LINE
  8
Engraving
 62
   7
 39
0.400
  6
CONTINUOUS
 10
125.03373
 20
65.09900
 30
 0
 11
125.03373
 21
62.53600
  0
LINE
  8
Engraving
 62
   7
 39
0.400
  6
CONTINUOUS
 10
125.03373
 20
62.53600
 30
 0
 11
126.74240
 21
62.53600
  0
ARC
  8
Engraving
 62
   7
 39
0.400
  6
CONTINUOUS
 10
128.33702
 20
63.39033
 30
 0
 40
0.91129
 50
180.00000
 51
360.00000
  0
LINE
  8
Engraving
 62
   7
 39
0.400
  6
CONTINUOUS
 10
129.24831
 20
63.39033
 30
 0
 11
129.24831
 21
64.24467
  0
ARC
  8
Engraving
 62
   7
 39
0.400
  6
CONTINUOUS
 10
128.33702
 20
64.24467
 30
 0
 40
0.91129
 50
0.00000
 51
180.00000
  0
LINE
  8
Engraving
 62
   7
 39
0.400
  6
CONTINUOUS
 10
127.42573
 20
64.24467
 30
 0
 11
127.42573
 21
63.39033
  0
LINE
  8
Engraving
 62
   7
 39
0.400
  6
CONTINUOUS
 10
128.62180
 20
63.10556
 30
 0
 11
129.24831
 21
62.47904
  0
LINE
  8
Engraving
 62
   7
 39
0.400
  6
CONTINUOUS
 10
161.69473
 20
62.53600
 30
 0
 11
161.69473
 21
65.09900
  0
LINE
  8
Engraving
 62
   7
 39
0.400
  6
CONTINUOUS
 10
161.69473
 20
65.09900
 30
 0
 11
162.63450
 21
65.09900
  0
ARC
  8
Engraving
 62
   7
 39
0.400
  6
CONTINUOUS
 10
162.63450
 20
64.45825
 30
 0
 40
0.64075
 50
-90.00000
 51
90.00000
  0
LINE
  8
Engraving
 62
   7
 39
0.400
  6
CONTINUOUS
 10
162.63450
 20
63.81750
 30
 0
 11
161.69473
 21
63.81750
  0
LINE
  8
Engraving
 62
   7
 39
0.400
  6
CONTINUOUS
 10
161.69473
 20
63.81750
 30
 0
 11
162.69146
 21
63.81750
  0
LINE
  8
Engraving
 62
   7
 39
0.400
  6
CONTINUOUS
 10
162.69146
 20
63.81750
 30
 0
 11
163.26101
 21
62.53600
  0
LINE
  8
Engraving
 62
   7
 39
0.400
  6
CONTINUOUS
 10
163.91673
 20
63.81750
 30
 0
 11
165.34062
 21
63.81750
  0
LINE
  8
Engraving
 62
   7
 39
0.400
  6
CONTINUOUS
 10
165.62540
 20
65.09900
 30
 0
 11
163.91673
 21
65.09900
  0
LINE
  8
Engraving
 62
   7
 39
0.400
  6
CONTINUOUS
 10
163.91673
 20
65.09900
 30
 0
 11
163.91673
 21
62.53600
  0
LINE
  8
Engraving
 62
   7
 39
0.400
  6
CONTINUOUS
 10
163.91673
 20
62.53600
 30
 0
 11
165.62540
 21
62.53600
  0
ARC
  8
Engraving
 62
   7
 39
0.400
  6
CONTINUOUS
 10
167.41890
 20
64.43854
 30
 0
 40
0.67574
 50
36.73449
 51
77.79505
  0
ARC
  8
Engraving
 62
   7
 39
0.400
  6
CONTINUOUS
 10
167.21868
 20
63.52758
 30
 0
 40
1.60844
 50
77.68434
 51
106.40648
  0
ARC
  8
Engraving
 62
   7
 39
0.400
  6
CONTINUOUS
 10
166.98382
 20
64.34183
 30
 0
 40
0.76101
 50
106.75938
 51
144.31597
  0
ARC
  8
Engraving
 62
   7
 39
0.400
  6
CONTINUOUS
 10
166.78896
 20
64.48191
 30
 0
 40
0.52103
 50
144.32844
 51
251.30934
  0
LINE
  8
Engraving
 62
   7
 39
0.400
  6
CONTINUOUS
 10
166.62199
 20
63.98837
 30
 0
 11
167.61871
 21
63.64663
  0
ARC
  8
Engraving
 62
   7
 39
0.400
  6
CONTINUOUS
 10
167.45174
 20
63.15309
 30
 0
 40
0.52103
 50
-35.67156
 51
71.30934
  0
ARC
  8
Engraving
 62
   7
 39
0.400
  6
CONTINUOUS
 10
167.25688
 20
63.29317
 30
 0
 40
0.76101
 50
286.75938
 51
324.31597
  0
ARC
  8
Engraving
 62
   7
 39
0.400
  6
CONTINUOUS
 10
167.02202
 20
64.10742
 30
 0
 40
1.60844
 50
257.68434
 51
286.40648
  0
ARC
  8
Engraving
 62
   7
 39
0.400
  6
CONTINUOUS
 10
166.82180
 20
63.19646
 30
 0
 40
0.67574
 50
216.73449
 51
257.79505
  0
LINE
  8
Engraving
 62
   7
 39
0.400
  6
CONTINUOUS
 10
40.33373
 20
18.53600
 30
 0
 11
40.33373
 21
21.09900
  0
LINE
  8
Engraving
 62
   7
 39
0.400
  6
CONTINUOUS
 10
40.33373
 20
21.09900
 30
 0
 11
41.27350
 21
21.09900
  0
ARC
  8
Engraving
 62
   7
 39
0.400
  6
CONTINUOUS
 10
41.27350
 20
20.45825
 30
 0
 40
0.64075
 50
-90.00000
 51
90.00000
  0
LINE
  8
Engraving
 62
   7
 39
0.400
  6
CONTINUOUS
 10
41.27350
 20
19.81750
 30
 0
 11
40.33373
 21
19.81750
  0
LINE
  8
Engraving
 62
   7
 39
0.400
  6
CONTINUOUS
 10
40.33373
 20
19.81750
 30
 0
 11
41.33046
 21
19.81750
  0
LINE
  8
Engraving
 62
   7
 39
0.400
  6
CONTINUOUS
 10
41.33046
 20
19.81750
 30
 0
 11
41.90001
 21
18.53600
  0
LINE
  8
Engraving
 62
   7
 39
0.400
  6
CONTINUOUS
 10
42.84051
 20
19.24794
 30
 0
 11
44.26440
 21
19.24794
  0
LINE
  8
Engraving
 62
   7
 39
0.400
  6
CONTINUOUS
 10
42.55573
 20
18.53600
 30
 0
 11
43.55246
 21
21.09900
  0
LINE
  8
Engraving
 62
   7
 39
0.400
  6
CONTINUOUS
 10
43.55246
 20
21.09900
 30
 0
 11
44.54918
 21
18.53600
  0
LINE
  8
Engraving
 62
   7
 39
0.400
  6
CONTINUOUS
 10
45.23173
 20
21.09900
 30
 0
 11
46.94040
 21
21.09900
  0
LINE
  8
Engraving
 62
   7
 39
0.400
  6
CONTINUOUS
 10
46.94040
 20
21.09900
 30
 0
 11
46.08607
 21
21.09900
  0
LINE
  8
Engraving
 62
   7
 39
0.400
  6
CONTINUOUS
 10
46.08607
 20
21.09900
 30
 0
 11
46.08607
 21
18.53600
  0
LINE
  8
Engraving
 62
   7
 39
0.400
  6
CONTINUOUS
 10
47.62373
 20
19.81750
 30
 0
 11
49.04762
 21
19.81750
  0
LINE
  8
Engraving
 62
   7
 39
0.400
  6
CONTINUOUS
 10
49.33240
 20
21.09900
 30
 0
 11
47.62373
 21
21.09900
  0
LINE
  8
Engraving
 62
   7
 39
0.400
  6
CONTINUOUS
 10
47.62373
 20
21.09900
 30
 0
 11
47.62373
 21
18.53600
  0
LINE
  8
Engraving
 62
   7
 39
0.400
  6
CONTINUOUS
 10
47.62373
 20
18.53600
 30
 0
 11
49.33240
 21
18.53600
  0
LINE
  8
Engraving
 62
   7
 39
0.400
  6
CONTINUOUS
 10
81.58651
 20
19.24794
 30
 0
 11
83.01040
 21
19.24794
  0
LINE
  8
Engraving
 62
   7
 39
0.400
  6
CONTINUOUS
 10
81.30173
 20
18.53600
 30
 0
 11
82.29846
 21
21.09900
  0
LINE
  8
Engraving
 62
   7
 39
0.400
  6
CONTINUOUS
 10
82.29846
 20
21.09900
 30
 0
 11
83.29518
 21
18.53600
  0
LINE
  8
Engraving
 62
   7
 39
0.400
  6
CONTINUOUS
 10
83.97873
 20
18.53600
 30
 0
 11
83.97873
 21
21.09900
  0
LINE
  8
Engraving
 62
   7
 39
0.400
  6
CONTINUOUS
 10
83.97873
 20
21.09900
 30
 0
 11
84.97546
 21
19.24794
  0
LINE
  8
Engraving
 62
   7
 39
0.400
  6
CONTINUOUS
 10
84.97546
 20
19.24794
 30
 0
 11
85.97218
 21
21.09900
  0
LINE
  8
Engraving
 62
   7
 39
0.400
  6
CONTINUOUS
 10
85.97218
 20
21.09900
 30
 0
 11
85.97218
 21
18.53600
  0
LINE
  8
Engraving
 62
   7
 39
0.400
  6
CONTINUOUS
 10
86.65473
 20
21.09900
 30
 0
 11
88.36340
 21
21.09900
  0
LINE
  8
Engraving
 62
   7
 39
0.400
  6
CONTINUOUS
 10
88.36340
 20
21.09900
 30
 0
 11
87.50907
 21
21.09900
  0
LINE
  8
Engraving
 62
   7
 39
0.400
  6
CONTINUOUS
 10
87.50907
 20
21.09900
 30
 0
 11
87.50907
 21
18.53600
  0
ARC
  8
Engraving
 62
   7
 39
0.400
  6
CONTINUOUS
 10
57.44102
 20
104.39033
 30
 0
 40
0.91129
 50
180.00000
 51
360.00000
  0
LINE
  8
Engraving
 62
   7
 39
0.400
  6
CONTINUOUS
 10
58.35231
 20
104.39033
 30
 0
 11
58.35231
 21
105.24467
  0
ARC
  8
Engraving
 62
   7
 39
0.400
  6
CONTINUOUS
 10
57.44102
 20
105.24467
 30
 0
 40
0.91129
 50
0.00000
 51
180.00000
  0
LINE
  8
Engraving
 62
   7
 39
0.400
  6
CONTINUOUS
 10
56.52973
 20
105.24467
 30
 0
 11
56.52973
 21
104.39033
  0
LINE
  8
Engraving
 62
   7
 39
0.400
  6
CONTINUOUS
 10
59.03673
 20
106.09900
 30
 0
 11
59.03673
 21
104.33338
  0
ARC
  8
Engraving
 62
   7
 39
0.400
  6
CONTINUOUS
 10
59.89107
 20
104.33338
 30
 0
 40
0.85433
 50
180.00000
 51
360.00000
  0
LINE
  8
Engraving
 62
   7
 39
0.400
  6
CONTINUOUS
 10
60.74540
 20
104.33338
 30
 0
 11
60.74540
 21
106.09900
  0
LINE
  8
Engraving
 62
   7
 39
0.400
  6
CONTINUOUS
 10
61.42873
 20
106.09900
 30
 0
 11
63.13740
 21
106.09900
  0
LINE
  8
Engraving
 62
   7
 39
0.400
  6
CONTINUOUS
 10
63.13740
 20
106.09900
 30
 0
 11
62.28307
 21
106.09900
  0
LINE
  8
Engraving
 62
   7
 39
0.400
  6
CONTINUOUS
 10
62.28307
 20
106.09900
 30
 0
 11
62.28307
 21
103.53600
  0
LINE
  8
Engraving
 62
   7
 39
0.400
  6
CONTINUOUS
 10
21.67173
 20
71.09900
 30
 0
 11
21.67173
 21
68.53600
  0
LINE
  8
Engraving
 62
   7
 39
0.400
  6
CONTINUOUS
 10
21.67173
 20
68.53600
 30
 0
 11
23.09562
 21
68.53600
  0
LINE
  8
Engraving
 62
   7
 39
0.400
  6
CONTINUOUS
 10
23.77973
 20
69.81750
 30
 0
 11
25.20362
 21
69.81750
  0
LINE
  8
Engraving
 62
   7
 39
0.400
  6
CONTINUOUS
 10
25.48840
 20
71.09900
 30
 0
 11
23.77973
 21
71.09900
  0
LINE
  8
Engraving
 62
   7
 39
0.400
  6
CONTINUOUS
 10
23.77973
 20
71.09900
 30
 0
 11
23.77973
 21
68.53600
  0
ARC
  8
Engraving
 62
   7
 39
0.400
  6
CONTINUOUS
 10
27.08302
 20
69.39033
 30
 0
 40
0.91129
 50
180.00000
 51
360.00000
  0
LINE
  8
Engraving
 62
   7
 39
0.400
  6
CONTINUOUS
 10
27.99431
 20
69.39033
 30
 0
 11
27.99431
 21
70.24467
  0
ARC
  8
Engraving
 62
   7
 39
0.400
  6
CONTINUOUS
 10
27.08302
 20
70.24467
 30
 0
 40
0.91129
 50
0.00000
 51
180.00000
  0
LINE
  8
Engraving
 62
   7
 39
0.400
  6
CONTINUOUS
 10
26.17173
 20
70.24467
 30
 0
 11
26.17173
 21
69.39033
  0
ARC
  8
Engraving
 62
   7
 39
0.400
  6
CONTINUOUS
 10
19.10902
 20
51.39033
 30
 0
 40
0.91129
 50
180.00000
 51
360.00000
  0
LINE
  8
Engraving
 62
   7
 39
0.400
  6
CONTINUOUS
 10
20.02031
 20
51.39033
 30
 0
 11
20.02031
 21
52.24467
  0
ARC
  8
Engraving
 62
   7
 39
0.400
  6
CONTINUOUS
 10
19.10902
 20
52.24467
 30
 0
 40
0.91129
 50
0.00000
 51
180.00000
  0
LINE
  8
Engraving
 62
   7
 39
0.400
  6
CONTINUOUS
 10
18.19773
 20
52.24467
 30
 0
 11
18.19773
 21
51.39033
  0
LINE
  8
Engraving
 62
   7
 39
0.400
  6
CONTINUOUS
 10
20.70473
 20
50.53600
 30
 0
 11
20.70473
 21
53.09900
  0
LINE
  8
Engraving
 62
   7
 39
0.400
  6
CONTINUOUS
 10
20.70473
 20
53.09900
 30
 0
 11
22.41340
 21
50.53600
  0
LINE
  8
Engraving
 62
   7
 39
0.400
  6
CONTINUOUS
 10
22.41340
 20
50.53600
 30
 0
 11
22.41340
 21
53.09900
  0
LINE
  8
Engraving
 62
   7
 39
0.400
  6
CONTINUOUS
 10
23.09773
 20
50.36513
 30
 0
 11
24.17989
 21
53.24139
  0
ARC
  8
Engraving
 62
   7
 39
0.400
  6
CONTINUOUS
 10
25.77502
 20
51.39033
 30
 0
 40
0.91129
 50
180.00000
 51
360.00000
  0
LINE
  8
Engraving
 62
   7
 39
0.400
  6
CONTINUOUS
 10
26.68631
 20
51.39033
 30
 0
 11
26.68631
 21
52.24467
  0
ARC
  8
Engraving
 62
   7
 39
0.400
  6
CONTINUOUS
 10
25.77502
 20
52.24467
 30
 0
 40
0.91129
 50
0.00000
 51
180.00000
  0
LINE
  8
Engraving
 62
   7
 39
0.400
  6
CONTINUOUS
 10
24.86373
 20
52.24467
 30
 0
 11
24.86373
 21
51.39033
  0
LINE
  8
Engraving
 62
   7
 39
0.400
  6
CONTINUOUS
 10
27.36973
 20
51.81750
 30
 0
 11
28.79362
 21
51.81750
  0
LINE
  8
Engraving
 62
   7
 39
0.400
  6
CONTINUOUS
 10
29.07840
 20
53.09900
 30
 0
 11
27.36973
 21
53.09900
  0
LINE
  8
Engraving
 62
   7
 39
0.400
  6
CONTINUOUS
 10
27.36973
 20
53.09900
 30
 0
 11
27.36973
 21
50.53600
  0
LINE
  8
Engraving
 62
   7
 39
0.400
  6
CONTINUOUS
 10
29.76173
 20
51.81750
 30
 0
 11
31.18562
 21
51.81750
  0
LINE
  8
Engraving
 62
   7
 39
0.400
  6
CONTINUOUS
 10
31.47040
 20
53.09900
 30
 0
 11
29.76173
 21
53.09900
  0
LINE
  8
Engraving
 62
   7
 39
0.400
  6
CONTINUOUS
 10
29.76173
 20
53.09900
 30
 0
 11
29.76173
 21
50.53600
  0
ARC
  8
Engraving
 62
   7
 39
0.400
  6
CONTINUOUS
 10
82.75290
 20
105.43854
 30
 0
 40
0.67574
 50
36.73449
 51
77.79505
  0
ARC
  8
Engraving
 62
   7
 39
0.400
  6
CONTINUOUS
 10
82.55268
 20
104.52758
 30
 0
 40
1.60844
 50
77.68434
 51
106.40648
  0
ARC
  8
Engraving
 62
   7
 39
0.400
  6
CONTINUOUS
 10
82.31782
 20
105.34183
 30
 0
 40
0.76101
 50
106.75938
 51
144.31597
  0
ARC
  8
Engraving
 62
   7
 39
0.400
  6
CONTINUOUS
 10
82.12296
 20
105.48191
 30
 0
 40
0.52103
 50
144.32844
 51
251.30934
  0
LINE
  8
Engraving
 62
   7
 39
0.400
  6
CONTINUOUS
 10
81.95599
 20
104.98837
 30
 0
 11
82.95271
 21
104.64663
  0
ARC
  8
Engraving
 62
   7
 39
0.400
  6
CONTINUOUS
 10
82.78574
 20
104.15309
 30
 0
 40
0.52103
 50
-35.67156
 51
71.30934
  0
ARC
  8
Engraving
 62
   7
 39
0.400
  6
CONTINUOUS
 10
82.59088
 20
104.29317
 30
 0
 40
0.76101
 50
286.75938
 51
324.31597
  0
ARC
  8
Engraving
 62
   7
 39
0.400
  6
CONTINUOUS
 10
82.35602
 20
105.10742
 30
 0
 40
1.60844
 50
257.68434
 51
286.40648
  0
ARC
  8
Engraving
 62
   7
 39
0.400
  6
CONTINUOUS
 10
82.15580
 20
104.19646
 30
 0
 40
0.67574
 50
216.73449
 51
257.79505
  0
ARC
  8
Engraving
 62
   7
 39
0.400
  6
CONTINUOUS
 10
84.89002
 20
104.39033
 30
 0
 40
0.91129
 50
180.00000
 51
360.00000
  0
LINE
  8
Engraving
 62
   7
 39
0.400
  6
CONTINUOUS
 10
85.80131
 20
104.39033
 30
 0
 11
85.80131
 21
105.24467
  0
ARC
  8
Engraving
 62
   7
 39
0.400
  6
CONTINUOUS
 10
84.89002
 20
105.24467
 30
 0
 40
0.91129
 50
0.00000
 51
180.00000
  0
LINE
  8
Engraving
 62
   7
 39
0.400
  6
CONTINUOUS
 10
83.97873
 20
105.24467
 30
 0
 11
83.97873
 21
104.39033
  0
LINE
  8
Engraving
 62
   7
 39
0.400
  6
CONTINUOUS
 10
85.17480
 20
104.10556
 30
 0
 11
85.80131
 21
103.47904
  0
LINE
  8
Engraving
 62
   7
 39
0.400
  6
CONTINUOUS
 10
86.48473
 20
103.53600
 30
 0
 11
86.48473
 21
106.09900
  0
LINE
  8
Engraving
 62
   7
 39
0.400
  6
CONTINUOUS
 10
86.48473
 20
106.09900
 30
 0
 11
87.42450
 21
106.09900
  0
ARC
  8
Engraving
 62
   7
 39
0.400
  6
CONTINUOUS
 10
87.42450
 20
105.45825
 30
 0
 40
0.64075
 50
-90.00000
 51
90.00000
  0
LINE
  8
Engraving
 62
   7
 39
0.400
  6
CONTINUOUS
 10
87.42450
 20
104.81750
 30
 0
 11
86.48473
 21
104.81750
  0
LINE
  8
Engraving
 62
   7
 39
0.400
  6
CONTINUOUS
 10
86.48473
 20
104.81750
 30
 0
 11
87.48146
 21
104.81750
  0
LINE
  8
Engraving
 62
   7
 39
0.400
  6
CONTINUOUS
 10
87.48146
 20
104.81750
 30
 0
 11
88.05101
 21
103.53600
  0
ARC
  8
Engraving
 62
   7
 39
0.400
  6
CONTINUOUS
 10
82.03390
 20
87.43854
 30
 0
 40
0.67574
 50
36.73449
 51
77.79505
  0
ARC
  8
Engraving
 62
   7
 39
0.400
  6
CONTINUOUS
 10
81.83368
 20
86.52758
 30
 0
 40
1.60844
 50
77.68434
 51
106.40648
  0
ARC
  8
Engraving
 62
   7
 39
0.400
  6
CONTINUOUS
 10
81.59882
 20
87.34183
 30
 0
 40
0.76101
 50
106.75938
 51
144.31597
  0
ARC
  8
Engraving
 62
   7
 39
0.400
  6
CONTINUOUS
 10
81.40396
 20
87.48191
 30
 0
 40
0.52103
 50
144.32844
 51
251.30934
  0
LINE
  8
Engraving
 62
   7
 39
0.400
  6
CONTINUOUS
 10
81.23699
 20
86.98837
 30
 0
 11
82.23371
 21
86.64663
  0
ARC
  8
Engraving
 62
   7
 39
0.400
  6
CONTINUOUS
 10
82.06674
 20
86.15309
 30
 0
 40
0.52103
 50
-35.67156
 51
71.30934
  0
ARC
  8
Engraving
 62
   7
 39
0.400
  6
CONTINUOUS
 10
81.87188
 20
86.29317
 30
 0
 40
0.76101
 50
286.75938
 51
324.31597
  0
ARC
  8
Engraving
 62
   7
 39
0.400
  6
CONTINUOUS
 10
81.63702
 20
87.10742
 30
 0
 40
1.60844
 50
257.68434
 51
286.40648
  0
ARC
  8
Engraving
 62
   7
 39
0.400
  6
CONTINUOUS
 10
81.43680
 20
86.19646
 30
 0
 40
0.67574
 50
216.73449
 51
257.79505
  0
LINE
  8
Engraving
 62
   7
 39
0.400
  6
CONTINUOUS
 10
83.54451
 20
86.24794
 30
 0
 11
84.96840
 21
86.24794
  0
LINE
  8
Engraving
 62
   7
 39
0.400
  6
CONTINUOUS
 10
83.25973
 20
85.53600
 30
 0
 11
84.25646
 21
88.09900
  0
LINE
  8
Engraving
 62
   7
 39
0.400
  6
CONTINUOUS
 10
84.25646
 20
88.09900
 30
 0
 11
85.25318
 21
85.53600
  0
LINE
  8
Engraving
 62
   7
 39
0.400
  6
CONTINUOUS
 10
85.93573
 20
88.09900
 30
 0
 11
86.64768
 21
85.53600
  0
LINE
  8
Engraving
 62
   7
 39
0.400
  6
CONTINUOUS
 10
86.64768
 20
85.53600
 30
 0
 11
87.35962
 21
88.09900
  0
LINE
  8
Engraving
 62
   7
 39
0.400
  6
CONTINUOUS
 10
87.35962
 20
88.09900
 30
 0
 11
88.07157
 21
85.53600
  0
LINE
  8
Engraving
 62
   7
 39
0.400
  6
CONTINUOUS
 10
88.07157
 20
85.53600
 30
 0
 11
88.78351
 21
88.09900
  0
LINE
  8
Engraving
 62
   7
 39
0.400
  6
CONTINUOUS
 10
19.50773
 20
110.53600
 30
 0
 11
19.50773
 21
113.09900
  0
LINE
  8
Engraving
 62
   7
 39
0.400
  6
CONTINUOUS
 10
19.50773
 20
113.09900
 30
 0
 11
20.50446
 21
111.24794
  0
LINE
  8
Engraving
 62
   7
 39
0.400
  6
CONTINUOUS
 10
20.50446
 20
111.24794
 30
 0
 11
21.50118
 21
113.09900
  0
LINE
  8
Engraving
 62
   7
 39
0.400
  6
CONTINUOUS
 10
21.50118
 20
113.09900
 30
 0
 11
21.50118
 21
110.53600
  0
LINE
  8
Engraving
 62
   7
 39
0.400
  6
CONTINUOUS
 10
22.18473
 20
113.09900
 30
 0
 11
22.18473
 21
110.53600
  0
LINE
  8
Engraving
 62
   7
 39
0.400
  6
CONTINUOUS
 10
22.86873
 20
113.09900
 30
 0
 11
23.75154
 21
113.09900
  0
ARC
  8
Engraving
 62
   7
 39
0.400
  6
CONTINUOUS
 10
23.71838
 20
112.24061
 30
 0
 40
0.85903
 50
0.27068
 51
87.78728
  0
LINE
  8
Engraving
 62
   7
 39
0.400
  6
CONTINUOUS
 10
24.57740
 20
112.24467
 30
 0
 11
24.57740
 21
111.39033
  0
ARC
  8
Engraving
 62
   7
 39
0.400
  6
CONTINUOUS
 10
23.75297
 20
111.36095
 30
 0
 40
0.82495
 50
-90.09907
 51
2.04111
  0
LINE
  8
Engraving
 62
   7
 39
0.400
  6
CONTINUOUS
 10
23.75154
 20
110.53600
 30
 0
 11
22.86873
 21
110.53600
  0
LINE
  8
Engraving
 62
   7
 39
0.400
  6
CONTINUOUS
 10
22.86873
 20
110.53600
 30
 0
 11
22.86873
 21
113.09900
  0
LINE
  8
Engraving
 62
   7
 39
0.400
  6
CONTINUOUS
 10
25.26073
 20
113.09800
 30
 0
 11
25.26073
 21
110.53500
  0
LINE
  8
Engraving
 62
   7
 39
0.400
  6
CONTINUOUS
 10
27.76573
 20
113.09800
 30
 0
 11
27.76573
 21
110.53500
  0
LINE
  8
Engraving
 62
   7
 39
0.400
  6
CONTINUOUS
 10
28.44873
 20
110.53500
 30
 0
 11
28.44873
 21
113.09800
  0
LINE
  8
Engraving
 62
   7
 39
0.400
  6
CONTINUOUS
 10
28.44873
 20
113.09800
 30
 0
 11
30.15740
 21
110.53500
  0
LINE
  8
Engraving
 62
   7
 39
0.400
  6
CONTINUOUS
 10
30.15740
 20
110.53500
 30
 0
 11
30.15740
 21
113.09800
  0
LINE
  8
Engraving
 62
   7
 39
0.200
  6
CONTINUOUS
 10
194.83266
 20
41.38104
 30
 0
 11
196.27497
 21
41.38104
  0
LINE
  8
Engraving
 62
   7
 39
0.200
  6
CONTINUOUS
 10
196.27497
 20
41.38104
 30
 0
 11
196.27497
 21
39.42363
  0
LINE
  8
Engraving
 62
   7
 39
0.200
  6
CONTINUOUS
 10
196.27497
 20
39.42363
 30
 0
 11
200.08677
 21
39.42363
  0
LINE
  8
Engraving
 62
   7
 39
0.200
  6
CONTINUOUS
 10
200.08677
 20
39.42363
 30
 0
 11
200.08677
 21
41.38104
  0
LINE
  8
Engraving
 62
   7
 39
0.200
  6
CONTINUOUS
 10
200.08677
 20
41.38104
 30
 0
 11
201.52908
 21
41.38104
  0
LINE
  8
Engraving
 62
   7
 39
0.200
  6
CONTINUOUS
 10
201.52908
 20
41.38104
 30
 0
 11
201.52908
 21
36.22996
  0
LINE
  8
Engraving
 62
   7
 39
0.200
  6
CONTINUOUS
 10
201.52908
 20
36.22996
 30
 0
 11
200.08677
 21
36.22996
  0
LINE
  8
Engraving
 62
   7
 39
0.200
  6
CONTINUOUS
 10
200.08677
 20
36.22996
 30
 0
 11
200.08677
 21
38.29039
  0
LINE
  8
Engraving
 62
   7
 39
0.200
  6
CONTINUOUS
 10
200.08677
 20
38.29039
 30
 0
 11
196.27497
 21
38.29039
  0
LINE
  8
Engraving
 62
   7
 39
0.200
  6
CONTINUOUS
 10
196.27497
 20
38.29039
 30
 0
 11
196.27497
 21
36.22996
  0
LINE
  8
Engraving
 62
   7
 39
0.200
  6
CONTINUOUS
 10
196.27497
 20
36.22996
 30
 0
 11
194.83266
 21
36.22996
  0
LINE
  8
Engraving
 62
   7
 39
0.200
  6
CONTINUOUS
 10
194.83266
 20
36.22996
 30
 0
 11
194.83266
 21
41.38104
  0
LINE
  8
Engraving
 62
   7
 39
0.200
  6
CONTINUOUS
 10
203.07366
 20
41.38104
 30
 0
 11
208.43079
 21
41.38104
  0
LINE
  8
Engraving
 62
   7
 39
0.200
  6
CONTINUOUS
 10
208.43079
 20
41.38104
 30
 0
 11
208.43079
 21
40.24780
  0
LINE
  8
Engraving
 62
   7
 39
0.200
  6
CONTINUOUS
 10
208.43079
 20
40.24780
 30
 0
 11
204.46446
 21
40.24780
  0
LINE
  8
Engraving
 62
   7
 39
0.200
  6
CONTINUOUS
 10
204.46446
 20
40.24780
 30
 0
 11
204.46446
 21
39.37212
  0
LINE
  8
Engraving
 62
   7
 39
0.200
  6
CONTINUOUS
 10
204.46446
 20
39.37212
 30
 0
 11
208.27626
 21
39.37212
  0
LINE
  8
Engraving
 62
   7
 39
0.200
  6
CONTINUOUS
 10
208.27626
 20
39.37212
 30
 0
 11
208.27626
 21
38.34190
  0
LINE
  8
Engraving
 62
   7
 39
0.200
  6
CONTINUOUS
 10
208.27626
 20
38.34190
 30
 0
 11
204.46446
 21
38.34190
  0
LINE
  8
Engraving
 62
   7
 39
0.200
  6
CONTINUOUS
 10
204.46446
 20
38.34190
 30
 0
 11
204.46446
 21
37.36320
  0
LINE
  8
Engraving
 62
   7
 39
0.200
  6
CONTINUOUS
 10
204.46446
 20
37.36320
 30
 0
 11
208.43079
 21
37.36320
  0
LINE
  8
Engraving
 62
   7
 39
0.200
  6
CONTINUOUS
 10
208.43079
 20
37.36320
 30
 0
 11
208.43079
 21
36.22996
  0
LINE
  8
Engraving
 62
   7
 39
0.200
  6
CONTINUOUS
 10
208.43079
 20
36.22996
 30
 0
 11
203.07366
 21
36.22996
  0
LINE
  8
Engraving
 62
   7
 39
0.200
  6
CONTINUOUS
 10
203.07366
 20
36.22996
 30
 0
 11
203.07366
 21
41.38104
  0
LINE
  8
Engraving
 62
   7
 39
0.200
  6
CONTINUOUS
 10
209.97566
 20
41.38104
 30
 0
 11
209.97566
 21
36.22996
  0
LINE
  8
Engraving
 62
   7
 39
0.200
  6
CONTINUOUS
 10
209.97566
 20
36.22996
 30
 0
 11
215.12675
 21
36.22996
  0
LINE
  8
Engraving
 62
   7
 39
0.200
  6
CONTINUOUS
 10
215.12675
 20
36.22996
 30
 0
 11
215.12675
 21
37.36320
  0
LINE
  8
Engraving
 62
   7
 39
0.200
  6
CONTINUOUS
 10
215.12675
 20
37.36320
 30
 0
 11
211.41797
 21
37.36320
  0
LINE
  8
Engraving
 62
   7
 39
0.200
  6
CONTINUOUS
 10
211.41797
 20
37.36320
 30
 0
 11
211.41797
 21
41.38104
  0
LINE
  8
Engraving
 62
   7
 39
0.200
  6
CONTINUOUS
 10
211.41797
 20
41.38104
 30
 0
 11
209.97566
 21
41.38104
  0
LINE
  8
Engraving
 62
   7
 39
0.200
  6
CONTINUOUS
 10
216.67166
 20
41.38104
 30
 0
 11
216.67166
 21
36.22996
  0
LINE
  8
Engraving
 62
   7
 39
0.200
  6
CONTINUOUS
 10
216.67166
 20
36.22996
 30
 0
 11
218.11397
 21
36.22996
  0
LINE
  8
Engraving
 62
   7
 39
0.200
  6
CONTINUOUS
 10
218.11397
 20
36.22996
 30
 0
 11
218.11397
 21
41.38104
  0
LINE
  8
Engraving
 62
   7
 39
0.200
  6
CONTINUOUS
 10
218.11397
 20
41.38104
 30
 0
 11
216.67166
 21
41.38104
  0
LINE
  8
Engraving
 62
   7
 39
0.200
  6
CONTINUOUS
 10
221.10097
 20
39.57816
 30
 0
 11
221.10097
 21
38.03284
  0
ARC
  8
Engraving
 62
   7
 39
0.200
  6
CONTINUOUS
 10
221.72518
 20
38.03626
 30
 0
 40
0.62422
 50
180.31455
 51
264.70635
  0
ARC
  8
Engraving
 62
   7
 39
0.200
  6
CONTINUOUS
 10
223.00687
 20
51.55714
 30
 0
 40
14.20571
 50
264.59025
 51
275.40975
  0
ARC
  8
Engraving
 62
   7
 39
0.200
  6
CONTINUOUS
 10
224.28856
 20
38.03626
 30
 0
 40
0.62422
 50
275.29365
 51
359.68545
  0
LINE
  8
Engraving
 62
   7
 39
0.200
  6
CONTINUOUS
 10
224.91277
 20
38.03284
 30
 0
 11
224.91277
 21
39.57816
  0
ARC
  8
Engraving
 62
   7
 39
0.200
  6
CONTINUOUS
 10
224.28856
 20
39.57474
 30
 0
 40
0.62422
 50
0.31455
 51
84.70635
  0
ARC
  8
Engraving
 62
   7
 39
0.200
  6
CONTINUOUS
 10
223.00687
 20
26.05386
 30
 0
 40
14.20571
 50
84.59025
 51
95.40975
  0
ARC
  8
Engraving
 62
   7
 39
0.200
  6
CONTINUOUS
 10
221.72518
 20
39.57474
 30
 0
 40
0.62422
 50
95.29365
 51
179.68545
  0
LINE
  8
Engraving
 62
   7
 39
0.200
  6
CONTINUOUS
 10
219.65866
 20
40.19629
 30
 0
 11
219.65866
 21
37.41471
  0
ARC
  8
Engraving
 62
   7
 39
0.200
  6
CONTINUOUS
 10
220.79876
 20
37.41625
 30
 0
 40
1.14009
 50
180.07779
 51
264.46959
  0
ARC
  8
Engraving
 62
   7
 39
0.200
  6
CONTINUOUS
 10
223.00687
 20
60.75876
 30
 0
 40
24.58681
 50
264.59025
 51
275.40975
  0
ARC
  8
Engraving
 62
   7
 39
0.200
  6
CONTINUOUS
 10
225.21498
 20
37.41625
 30
 0
 40
1.14009
 50
275.53041
 51
359.92221
  0
LINE
  8
Engraving
 62
   7
 39
0.200
  6
CONTINUOUS
 10
226.35508
 20
37.41471
 30
 0
 11
226.35508
 21
40.19629
  0
ARC
  8
Engraving
 62
   7
 39
0.200
  6
CONTINUOUS
 10
225.21498
 20
40.19475
 30
 0
 40
1.14009
 50
0.07779
 51
84.46959
  0
ARC
  8
Engraving
 62
   7
 39
0.200
  6
CONTINUOUS
 10
223.00687
 20
16.85224
 30
 0
 40
24.58681
 50
84.59025
 51
95.40975
  0
ARC
  8
Engraving
 62
   7
 39
0.200
  6
CONTINUOUS
 10
220.79876
 20
40.19475
 30
 0
 40
1.14009
 50
95.53041
 51
179.92221
  0
LINE
  8
Engraving
 62
   7
 39
0.200
  6
CONTINUOUS
 10
229.34197
 20
37.77528
 30
 0
 11
227.89966
 21
37.77528
  0
LINE
  8
Engraving
 62
   7
 39
0.200
  6
CONTINUOUS
 10
227.89966
 20
37.77528
 30
 0
 11
227.89966
 21
37.36320
  0
ARC
  8
Engraving
 62
   7
 39
0.200
  6
CONTINUOUS
 10
229.01135
 20
37.39050
 30
 0
 40
1.11202
 50
181.40692
 51
265.79872
  0
ARC
  8
Engraving
 62
   7
 39
0.200
  6
CONTINUOUS
 10
230.99032
 20
58.03906
 30
 0
 40
21.85494
 50
264.59025
 51
275.40975
  0
ARC
  8
Engraving
 62
   7
 39
0.200
  6
CONTINUOUS
 10
232.96928
 20
37.39050
 30
 0
 40
1.11202
 50
274.20128
 51
358.59308
  0
LINE
  8
Engraving
 62
   7
 39
0.200
  6
CONTINUOUS
 10
234.08097
 20
37.36320
 30
 0
 11
234.08097
 21
38.18737
  0
ARC
  8
Engraving
 62
   7
 39
0.200
  6
CONTINUOUS
 10
232.94838
 20
38.18916
 30
 0
 40
1.13259
 50
359.90948
 51
447.42608
  0
LINE
  8
Engraving
 62
   7
 39
0.200
  6
CONTINUOUS
 10
232.99924
 20
39.32061
 30
 0
 11
229.75405
 21
39.42363
  0
ARC
  8
Engraving
 62
   7
 39
0.200
  6
CONTINUOUS
 10
229.76724
 20
39.83572
 30
 0
 40
0.41230
 50
91.83331
 51
268.16669
  0
LINE
  8
Engraving
 62
   7
 39
0.200
  6
CONTINUOUS
 10
229.75405
 20
40.24780
 30
 0
 11
232.22658
 21
40.24780
  0
ARC
  8
Engraving
 62
   7
 39
0.200
  6
CONTINUOUS
 10
232.22875
 20
39.83789
 30
 0
 40
0.40992
 50
-0.30378
 51
90.30378
  0
LINE
  8
Engraving
 62
   7
 39
0.200
  6
CONTINUOUS
 10
232.63866
 20
39.83572
 30
 0
 11
234.08097
 21
39.83572
  0
LINE
  8
Engraving
 62
   7
 39
0.200
  6
CONTINUOUS
 10
234.08097
 20
39.83572
 30
 0
 11
234.08097
 21
40.24780
  0
ARC
  8
Engraving
 62
   7
 39
0.200
  6
CONTINUOUS
 10
232.96928
 20
40.22050
 30
 0
 40
1.11202
 50
1.40692
 51
85.79872
  0
ARC
  8
Engraving
 62
   7
 39
0.200
  6
CONTINUOUS
 10
230.99032
 20
19.57194
 30
 0
 40
21.85494
 50
84.59025
 51
95.40975
  0
ARC
  8
Engraving
 62
   7
 39
0.200
  6
CONTINUOUS
 10
229.03976
 20
40.19475
 30
 0
 40
1.14009
 50
95.53041
 51
179.92221
  0
LINE
  8
Engraving
 62
   7
 39
0.200
  6
CONTINUOUS
 10
227.89966
 20
40.19629
 30
 0
 11
227.89966
 21
39.47514
  0
ARC
  8
Engraving
 62
   7
 39
0.200
  6
CONTINUOUS
 10
229.03225
 20
39.47335
 30
 0
 40
1.13259
 50
179.90948
 51
267.42608
  0
LINE
  8
Engraving
 62
   7
 39
0.200
  6
CONTINUOUS
 10
228.98139
 20
38.34190
 30
 0
 11
232.22658
 21
38.23888
  0
ARC
  8
Engraving
 62
   7
 39
0.200
  6
CONTINUOUS
 10
232.21256
 20
37.80104
 30
 0
 40
0.43807
 50
-88.16669
 51
88.16669
  0
LINE
  8
Engraving
 62
   7
 39
0.200
  6
CONTINUOUS
 10
232.22658
 20
37.36320
 30
 0
 11
229.75405
 21
37.36320
  0
ARC
  8
Engraving
 62
   7
 39
0.200
  6
CONTINUOUS
 10
229.75188
 20
37.77311
 30
 0
 40
0.40992
 50
179.69622
 51
270.30378
  0
LINE
  8
Engraving
 62
   7
 39
0.200
  6
CONTINUOUS
 10
196.27697
 20
31.11116
 30
 0
 11
196.27697
 21
29.56584
  0
ARC
  8
Engraving
 62
   7
 39
0.200
  6
CONTINUOUS
 10
196.90118
 20
29.56926
 30
 0
 40
0.62422
 50
180.31455
 51
264.70635
  0
ARC
  8
Engraving
 62
   7
 39
0.200
  6
CONTINUOUS
 10
198.18287
 20
43.09014
 30
 0
 40
14.20571
 50
264.59025
 51
275.40975
  0
ARC
  8
Engraving
 62
   7
 39
0.200
  6
CONTINUOUS
 10
199.46456
 20
29.56926
 30
 0
 40
0.62422
 50
275.29365
 51
359.68545
  0
LINE
  8
Engraving
 62
   7
 39
0.200
  6
CONTINUOUS
 10
200.08877
 20
29.56584
 30
 0
 11
200.08877
 21
31.11116
  0
ARC
  8
Engraving
 62
   7
 39
0.200
  6
CONTINUOUS
 10
199.46456
 20
31.10774
 30
 0
 40
0.62422
 50
0.31455
 51
84.70635
  0
ARC
  8
Engraving
 62
   7
 39
0.200
  6
CONTINUOUS
 10
198.18287
 20
17.58686
 30
 0
 40
14.20571
 50
84.59025
 51
95.40975
  0
ARC
  8
Engraving
 62
   7
 39
0.200
  6
CONTINUOUS
 10
196.90118
 20
31.10774
 30
 0
 40
0.62422
 50
95.29365
 51
179.68545
  0
LINE
  8
Engraving
 62
   7
 39
0.200
  6
CONTINUOUS
 10
194.83466
 20
31.72929
 30
 0
 11
194.83466
 21
28.94771
  0
ARC
  8
Engraving
 62
   7
 39
0.200
  6
CONTINUOUS
 10
195.97476
 20
28.94925
 30
 0
 40
1.14009
 50
180.07779
 51
264.46959
  0
ARC
  8
Engraving
 62
   7
 39
0.200
  6
CONTINUOUS
 10
198.18287
 20
52.29176
 30
 0
 40
24.58681
 50
264.59025
 51
275.40975
  0
ARC
  8
Engraving
 62
   7
 39
0.200
  6
CONTINUOUS
 10
200.39098
 20
28.94925
 30
 0
 40
1.14009
 50
275.53041
 51
359.92221
  0
LINE
  8
Engraving
 62
   7
 39
0.200
  6
CONTINUOUS
 10
201.53108
 20
28.94771
 30
 0
 11
201.53108
 21
31.72929
  0
ARC
  8
Engraving
 62
   7
 39
0.200
  6
CONTINUOUS
 10
200.39098
 20
31.72775
 30
 0
 40
1.14009
 50
0.07779
 51
84.46959
  0
ARC
  8
Engraving
 62
   7
 39
0.200
  6
CONTINUOUS
 10
198.18287
 20
8.38524
 30
 0
 40
24.58681
 50
84.59025
 51
95.40975
  0
ARC
  8
Engraving
 62
   7
 39
0.200
  6
CONTINUOUS
 10
195.97476
 20
31.72775
 30
 0
 40
1.14009
 50
95.53041
 51
179.92221
  0
LINE
  8
Engraving
 62
   7
 39
0.200
  6
CONTINUOUS
 10
203.07566
 20
32.91404
 30
 0
 11
203.07566
 21
27.76296
  0
LINE
  8
Engraving
 62
   7
 39
0.200
  6
CONTINUOUS
 10
203.07566
 20
27.76296
 30
 0
 11
204.51797
 21
27.76296
  0
LINE
  8
Engraving
 62
   7
 39
0.200
  6
CONTINUOUS
 10
204.51797
 20
27.76296
 30
 0
 11
204.51797
 21
31.78080
  0
LINE
  8
Engraving
 62
   7
 39
0.200
  6
CONTINUOUS
 10
204.51797
 20
31.78080
 30
 0
 11
204.56948
 21
31.78080
  0
LINE
  8
Engraving
 62
   7
 39
0.200
  6
CONTINUOUS
 10
204.56948
 20
31.78080
 30
 0
 11
207.35107
 21
27.76296
  0
LINE
  8
Engraving
 62
   7
 39
0.200
  6
CONTINUOUS
 10
207.35107
 20
27.76296
 30
 0
 11
209.77208
 21
27.76296
  0
LINE
  8
Engraving
 62
   7
 39
0.200
  6
CONTINUOUS
 10
209.77208
 20
27.76296
 30
 0
 11
209.77208
 21
32.91404
  0
LINE
  8
Engraving
 62
   7
 39
0.200
  6
CONTINUOUS
 10
209.77208
 20
32.91404
 30
 0
 11
208.32977
 21
32.91404
  0
LINE
  8
Engraving
 62
   7
 39
0.200
  6
CONTINUOUS
 10
208.32977
 20
32.91404
 30
 0
 11
208.32977
 21
28.89620
  0
LINE
  8
Engraving
 62
   7
 39
0.200
  6
CONTINUOUS
 10
208.32977
 20
28.89620
 30
 0
 11
208.27826
 21
28.89620
  0
LINE
  8
Engraving
 62
   7
 39
0.200
  6
CONTINUOUS
 10
208.27826
 20
28.89620
 30
 0
 11
205.49667
 21
32.91404
  0
LINE
  8
Engraving
 62
   7
 39
0.200
  6
CONTINUOUS
 10
205.49667
 20
32.91404
 30
 0
 11
203.07566
 21
32.91404
  0
LINE
  8
Engraving
 62
   7
 39
0.200
  6
CONTINUOUS
 10
211.31666
 20
32.91404
 30
 0
 11
216.67379
 21
32.91404
  0
LINE
  8
Engraving
 62
   7
 39
0.200
  6
CONTINUOUS
 10
216.67379
 20
32.91404
 30
 0
 11
216.67379
 21
31.78080
  0
LINE
  8
Engraving
 62
   7
 39
0.200
  6
CONTINUOUS
 10
216.67379
 20
31.78080
 30
 0
 11
212.70746
 21
31.78080
  0
LINE
  8
Engraving
 62
   7
 39
0.200
  6
CONTINUOUS
 10
212.70746
 20
31.78080
 30
 0
 11
212.70746
 21
30.90512
  0
LINE
  8
Engraving
 62
   7
 39
0.200
  6
CONTINUOUS
 10
212.70746
 20
30.90512
 30
 0
 11
216.51926
 21
30.90512
  0
LINE
  8
Engraving
 62
   7
 39
0.200
  6
CONTINUOUS
 10
216.51926
 20
30.90512
 30
 0
 11
216.51926
 21
29.87490
  0
LINE
  8
Engraving
 62
   7
 39
0.200
  6
CONTINUOUS
 10
216.51926
 20
29.87490
 30
 0
 11
212.70746
 21
29.87490
  0
LINE
  8
Engraving
 62
   7
 39
0.200
  6
CONTINUOUS
 10
212.70746
 20
29.87490
 30
 0
 11
212.70746
 21
28.89620
  0
LINE
  8
Engraving
 62
   7
 39
0.200
  6
CONTINUOUS
 10
212.70746
 20
28.89620
 30
 0
 11
216.67379
 21
28.89620
  0
LINE
  8
Engraving
 62
   7
 39
0.200
  6
CONTINUOUS
 10
216.67379
 20
28.89620
 30
 0
 11
216.67379
 21
27.76296
  0
LINE
  8
Engraving
 62
   7
 39
0.200
  6
CONTINUOUS
 10
216.67379
 20
27.76296
 30
 0
 11
211.31666
 21
27.76296
  0
LINE
  8
Engraving
 62
   7
 39
0.200
  6
CONTINUOUS
 10
211.31666
 20
27.76296
 30
 0
 11
211.31666
 21
32.91404
  0
ENDSEC
  0
EOF
